<?xml version="1.0" encoding="utf-8" standalone="no"?>
<!DOCTYPE svg PUBLIC "-//W3C//DTD SVG 1.1//EN"
  "http://www.w3.org/Graphics/SVG/1.1/DTD/svg11.dtd">
<svg xmlns:xlink="http://www.w3.org/1999/xlink" width="260.357039pt" height="321.622535pt" viewBox="0 0 260.357039 321.622535" xmlns="http://www.w3.org/2000/svg" version="1.1">
 <metadata>
  <rdf:RDF xmlns:dc="http://purl.org/dc/elements/1.1/" xmlns:cc="http://creativecommons.org/ns#" xmlns:rdf="http://www.w3.org/1999/02/22-rdf-syntax-ns#">
   <cc:Work>
    <dc:type rdf:resource="http://purl.org/dc/dcmitype/StillImage"/>
    <dc:date>2025-02-03T13:43:16.925112</dc:date>
    <dc:format>image/svg+xml</dc:format>
    <dc:creator>
     <cc:Agent>
      <dc:title>Matplotlib v3.5.1, https://matplotlib.org/</dc:title>
     </cc:Agent>
    </dc:creator>
   </cc:Work>
  </rdf:RDF>
 </metadata>
 <defs>
  <style type="text/css">*{stroke-linejoin: round; stroke-linecap: butt}</style>
 </defs>
 <g id="figure_1">
  <g id="patch_1">
   <path d="M 0 321.622535
L 260.357039 321.622535
L 260.357039 0
L 0 0
L 0 321.622535
z
" style="fill: none"/>
  </g>
  <g id="axes_1">
   <g id="patch_2">
    <path d="M 53.589354 273.312
L 253.157039 273.312
L 253.157039 7.2
L 53.589354 7.2
L 53.589354 273.312
z
" style="fill: none"/>
   </g>
   <g id="patch_3">
    <path d="M 62.660613 139.80533
L 62.669559 138.92539
L 62.687173 138.071857
L 62.713193 137.243988
L 62.747366 136.441041
L 62.789448 135.66228
L 62.839199 134.906976
L 62.896389 134.174406
L 62.960794 133.463858
L 63.032197 132.774628
L 63.110388 132.106026
L 63.195166 131.457372
L 63.286333 130.827998
L 63.3837 130.217251
L 63.487084 129.624491
L 63.596309 129.049092
L 63.711203 128.490442
L 63.831602 127.947946
L 63.957348 127.421021
L 64.088288 126.9091
L 64.224274 126.411631
L 64.365165 125.928078
L 64.510824 125.457918
L 64.66112 125.000644
L 64.815926 124.555764
L 64.975121 124.122799
L 65.138588 123.701286
L 65.306215 123.290776
L 65.477894 122.890831
L 65.653521 122.501032
L 65.832997 122.120968
L 66.016227 121.750243
L 66.203119 121.388475
L 66.393585 121.035293
L 66.587541 120.690338
L 66.784908 120.353264
L 66.985607 120.023734
L 67.189566 119.701425
L 67.396712 119.386023
L 67.606979 119.077225
L 67.820303 118.774739
L 68.036621 118.478281
L 68.255874 118.187577
L 68.478007 117.902363
L 68.702966 117.622384
L 68.930699 117.347393
L 69.161158 117.077151
L 69.394297 116.811427
L 69.630072 116.549998
L 69.86844 116.29265
L 70.109362 116.039173
L 70.3528 115.789365
L 70.598719 115.543033
L 70.847085 115.299987
L 71.097865 115.060044
L 71.351031 114.823029
L 71.606552 114.58877
L 71.864403 114.357101
L 72.124558 114.127863
L 72.386994 113.900899
L 72.651689 113.676059
L 72.918623 113.453197
L 73.187775 113.232172
L 73.45913 113.012845
L 73.732669 112.795083
L 74.008379 112.578756
L 74.286246 112.363738
L 74.566257 112.149907
L 74.848401 111.937144
L 75.132667 111.725331
L 75.419048 111.514356
L 75.707534 111.304109
L 75.99812 111.094482
L 76.290799 110.88537
L 76.585567 110.676671
L 76.882421 110.468284
L 77.181357 110.260113
L 77.482374 110.052059
L 77.785472 109.844031
L 78.09065 109.635936
L 78.39791 109.427684
L 78.707253 109.219185
L 79.018683 109.010354
L 79.332204 108.801104
L 79.647819 108.591351
L 79.965535 108.381013
L 80.285357 108.170007
L 80.607294 107.958253
L 80.931351 107.74567
L 81.257539 107.532182
L 81.585867 107.317708
L 81.916345 107.102173
L 82.248984 106.8855
L 82.583795 106.667613
L 82.920792 106.448436
L 83.259987 106.227895
L 83.601395 106.005916
L 83.94503 105.782423
L 84.290908 105.557345
L 84.639045 105.330606
L 84.989458 105.102133
L 85.342165 104.871854
L 85.697184 104.639694
L 86.054534 104.405581
L 86.414235 104.169441
L 86.776308 103.931201
L 87.140774 103.690786
L 87.507656 103.448124
L 87.876976 103.203139
L 88.248758 102.955756
L 88.623025 102.705902
L 88.999804 102.4535
L 89.37912 102.198475
L 89.761 101.94075
L 90.145471 101.680247
L 90.532561 101.41689
L 90.922299 101.1506
L 91.314715 100.881297
L 91.70984 100.608903
L 92.107704 100.333335
L 92.50834 100.054514
L 92.911781 99.772355
L 93.31806 99.486776
L 93.727213 99.197693
L 94.139275 98.90502
L 94.554281 98.60867
L 94.97227 98.308557
L 95.393279 98.004592
L 95.817348 97.696684
L 96.244515 97.384743
L 96.674823 97.068677
L 97.108312 96.748392
L 97.545026 96.423794
L 97.985007 96.094786
L 98.428301 95.761272
L 98.874953 95.423152
L 99.32501 95.080326
L 99.778519 94.732693
L 100.235529 94.380149
L 100.696089 94.022592
L 101.16025 93.659913
L 101.628064 93.292007
L 102.099584 92.918764
L 102.574863 92.540073
L 103.053957 92.155824
L 103.536922 91.765903
L 104.023815 91.370195
L 104.514694 90.968584
L 105.009619 90.560951
L 105.508652 90.147178
L 106.011853 89.727144
L 106.519286 89.300728
L 107.031016 88.867805
L 107.547109 88.428251
L 108.06763 87.981939
L 108.592649 87.528744
L 109.122235 87.068535
L 109.656458 86.601185
L 110.195392 86.126561
L 110.739108 85.644534
L 111.287682 85.154969
L 111.84119 84.657736
L 112.39971 84.1527
L 112.963319 83.639726
L 113.532098 83.118682
L 114.106129 82.589432
L 114.685494 82.051842
L 115.270277 81.505778
L 115.860563 80.951106
L 116.45644 80.387694
L 117.057995 79.81541
L 117.665318 79.234122
L 118.278499 78.643702
L 118.897631 78.044021
L 119.522806 77.434957
L 120.15412 76.816384
L 120.791667 76.188185
L 121.435545 75.550243
L 122.085851 74.902445
L 122.742685 74.244685
L 123.406147 73.576858
L 124.076338 72.898869
L 124.75336 72.210625
L 125.437316 71.512042
L 126.12831 70.803044
L 126.826447 70.083561
L 127.531831 69.353535
L 128.244568 68.612915
L 128.964764 67.861663
L 129.692526 67.099751
L 130.427961 66.327165
L 131.171175 65.543905
L 131.922274 64.749985
L 132.681367 63.945435
L 133.448557 63.130304
L 134.223952 62.304658
L 135.007655 61.468583
L 135.799771 60.622189
L 136.600401 59.765606
L 137.409648 58.898992
L 138.227611 58.022527
L 139.054386 57.136423
L 139.89007 56.24092
L 140.734754 55.33629
L 141.58853 54.422839
L 142.451482 53.500908
L 143.323695 52.570877
L 144.205246 51.633164
L 145.096212 50.68823
L 145.99666 49.736581
L 146.906657 48.778768
L 147.82626 47.815391
L 148.755522 46.8471
L 149.694488 45.874601
L 150.643197 44.898654
L 151.60168 43.920074
L 152.569958 42.939741
L 153.548044 41.958593
L 154.535942 40.977635
L 155.533644 39.997935
L 156.541131 39.020633
L 157.558375 38.046935
L 158.585333 37.078121
L 159.621948 36.115542
L 160.668152 35.160623
L 161.723861 34.214863
L 162.788976 33.279837
L 163.86338 32.357195
L 164.946941 31.448661
L 166.03951 30.556033
L 167.140917 29.681184
L 168.250976 28.826058
L 169.36948 27.992665
L 170.4962 27.183087
L 171.630888 26.399466
L 172.773273 25.644004
L 173.923063 24.918958
L 175.079941 24.226634
L 176.243569 23.569382
L 177.413585 22.949586
L 178.589601 22.369661
L 179.771207 21.832042
L 180.957967 21.339175
L 182.149422 20.893507
L 183.345088 20.497475
L 184.544455 20.153497
L 185.746993 19.863957
L 186.952143 19.631194
L 188.159328 19.457488
L 189.367945 19.345049
L 190.577372 19.296
L 191.786964 19.312363
L 192.996056 19.396048
L 194.203968 19.548834
L 195.41 19.772359
L 196.613437 20.068104
L 197.813549 20.43738
L 199.009597 20.881314
L 200.200827 21.40084
L 201.386482 21.996683
L 202.565794 22.669354
L 203.737994 23.419137
L 204.90231 24.246081
L 206.057972 25.149999
L 207.204211 26.130457
L 208.340266 27.186776
L 209.465382 28.318026
L 210.578816 29.523032
L 211.679836 30.800372
L 212.767729 32.148382
L 213.841796 33.565167
L 214.90136 35.048601
L 215.945766 36.596344
L 216.974383 38.205847
L 217.986608 39.874372
L 218.981865 41.599
L 219.959608 43.37665
L 220.919322 45.204097
L 221.860527 47.077986
L 222.782775 48.994852
L 223.685655 50.95114
L 224.568789 52.943225
L 225.431839 54.96743
L 226.274502 57.020043
L 227.096513 59.097342
L 227.897642 61.19561
L 228.677699 63.311155
L 229.43653 65.440323
L 230.174015 67.579521
L 230.890074 69.72523
L 231.584657 71.874016
L 232.25775 74.022548
L 232.909374 76.167609
L 233.539576 78.306103
L 234.148439 80.435069
L 234.736072 82.551686
L 235.302612 84.653279
L 235.848222 86.737329
L 236.373088 88.80147
L 236.877422 90.843497
L 237.361455 92.861365
L 237.825438 94.853189
L 238.26964 96.817246
L 238.694347 98.751971
L 239.099859 100.655955
L 239.486491 102.527942
L 239.854567 104.366825
L 240.204424 106.171642
L 240.536407 107.941569
L 240.850868 109.675916
L 241.148165 111.374121
L 241.428663 113.035745
L 241.69273 114.660462
L 241.940734 116.248056
L 242.173049 117.798413
L 242.390046 119.311514
L 242.592099 120.787429
L 242.779577 122.22631
L 242.952851 123.628386
L 243.112288 124.993954
L 243.258249 126.323377
L 243.391095 127.617073
L 243.511181 128.875512
L 243.618857 130.099213
L 243.714467 131.288734
L 243.798351 132.444671
L 243.87084 133.567649
L 243.932262 134.658324
L 243.982935 135.717372
L 244.023173 136.745489
L 244.053282 137.743389
L 244.07356 138.711796
L 244.084298 139.651443
L 244.085781 140.56307
L 244.078284 141.447423
L 244.062077 142.305245
L 244.037421 143.137281
L 244.004571 143.944274
L 243.963773 144.72696
L 243.915267 145.48607
L 243.859284 146.222328
L 243.79605 146.936448
L 243.725783 147.629134
L 243.648693 148.30108
L 243.564984 148.952967
L 243.474855 149.585465
L 243.378494 150.19923
L 243.276086 150.794903
L 243.16781 151.373113
L 243.053837 151.934475
L 242.934331 152.479586
L 242.809453 153.009031
L 242.679357 153.52338
L 242.54419 154.023187
L 242.404096 154.508992
L 242.259212 154.981318
L 242.109669 155.440676
L 241.955596 155.887561
L 241.797114 156.322452
L 241.634342 156.745816
L 241.467391 157.158105
L 241.296371 157.559757
L 241.121386 157.951196
L 240.942536 158.332833
L 240.759917 158.705066
L 240.573621 159.06828
L 240.383737 159.422849
L 240.190348 159.769132
L 239.993537 160.107479
L 239.79338 160.438226
L 239.589953 160.7617
L 239.383325 161.078216
L 239.173567 161.388079
L 238.960741 161.691584
L 238.744911 161.989014
L 238.526137 162.280645
L 238.304473 162.566744
L 238.079976 162.847566
L 237.852695 163.123361
L 237.62268 163.394368
L 237.389979 163.660819
L 237.154635 163.922938
L 236.91669 164.180943
L 236.676185 164.435043
L 236.433158 164.68544
L 236.187644 164.932331
L 235.939679 165.175904
L 235.689293 165.416345
L 235.436518 165.65383
L 235.181382 165.88853
L 234.923912 166.120614
L 234.664134 166.350241
L 234.402071 166.577568
L 234.137746 166.802747
L 233.871179 167.025924
L 233.60239 167.247242
L 233.331396 167.466839
L 233.058215 167.684849
L 232.78286 167.901403
L 232.505347 168.116628
L 232.225688 168.330646
L 231.943894 168.543577
L 231.659976 168.755538
L 231.373942 168.966643
L 231.085802 169.177003
L 230.795561 169.386724
L 230.503225 169.595914
L 230.2088 169.804674
L 229.912289 170.013105
L 229.613695 170.221306
L 229.31302 170.429372
L 229.010264 170.637398
L 228.705428 170.845476
L 228.39851 171.053697
L 228.089509 171.262149
L 227.778422 171.47092
L 227.465246 171.680095
L 227.149975 171.889759
L 226.832605 172.099996
L 226.513129 172.310887
L 226.191541 172.522512
L 225.867833 172.734953
L 225.541995 172.948287
L 225.21402 173.162594
L 224.883896 173.377949
L 224.551613 173.59443
L 224.21716 173.812113
L 223.880523 174.031073
L 223.54169 174.251384
L 223.200647 174.473122
L 222.857379 174.696361
L 222.511871 174.921174
L 222.164106 175.147635
L 221.814068 175.375818
L 221.46174 175.605795
L 221.107102 175.83764
L 220.750137 176.071427
L 220.390823 176.307229
L 220.029142 176.545119
L 219.66507 176.785172
L 219.298587 177.02746
L 218.929669 177.272058
L 218.558294 177.519042
L 218.184437 177.768484
L 217.808072 178.020462
L 217.429175 178.275051
L 217.047718 178.532328
L 216.663675 178.792368
L 216.277018 179.055251
L 215.887717 179.321054
L 215.495743 179.589856
L 215.101066 179.861737
L 214.703654 180.136777
L 214.303476 180.415058
L 213.900498 180.696663
L 213.494687 180.981674
L 213.086009 181.270175
L 212.674428 181.562253
L 212.259908 181.857992
L 211.842412 182.157481
L 211.421902 182.460807
L 210.998339 182.768061
L 210.571683 183.079332
L 210.141895 183.394714
L 209.708931 183.714299
L 209.272751 184.038182
L 208.833309 184.366458
L 208.390563 184.699225
L 207.944466 185.036582
L 207.494972 185.378627
L 207.042033 185.725463
L 206.585602 186.077193
L 206.125629 186.433919
L 205.662063 186.795749
L 205.194853 187.162789
L 204.723946 187.535147
L 204.249288 187.912935
L 203.770825 188.296262
L 203.2885 188.685243
L 202.802257 189.079993
L 202.312037 189.480626
L 201.817781 189.887261
L 201.319428 190.300016
L 200.816916 190.719013
L 200.310182 191.144372
L 199.799163 191.576217
L 199.283792 192.014673
L 198.764003 192.459865
L 198.239728 192.911921
L 197.710898 193.370968
L 197.177442 193.837136
L 196.639287 194.310555
L 196.096362 194.791356
L 195.548591 195.279673
L 194.995899 195.775637
L 194.438209 196.279382
L 193.875442 196.791041
L 193.307517 197.31075
L 192.734355 197.838642
L 192.155873 198.374852
L 191.571987 198.919515
L 190.98261 199.472762
L 190.387658 200.034729
L 189.787043 200.605546
L 189.180674 201.185346
L 188.568462 201.774256
L 187.950314 202.372406
L 187.326138 202.97992
L 186.69584 203.596922
L 186.059324 204.223531
L 185.416493 204.859864
L 184.76725 205.506034
L 184.111496 206.16215
L 183.44913 206.828316
L 182.780052 207.504628
L 182.10416 208.191181
L 181.42135 208.888059
L 180.73152 209.595341
L 180.034565 210.313096
L 179.330379 211.041386
L 178.618858 211.780262
L 177.899895 212.529764
L 177.173383 213.289923
L 176.439217 214.060754
L 175.697289 214.842261
L 174.947492 215.634431
L 174.189721 216.437236
L 173.423869 217.250633
L 172.64983 218.074556
L 171.867499 218.908924
L 171.076773 219.75363
L 170.277548 220.608549
L 169.469725 221.473526
L 168.653201 222.348386
L 167.827881 223.232922
L 166.993668 224.126898
L 166.150468 225.030048
L 165.298193 225.942072
L 164.436755 226.862634
L 163.56607 227.791361
L 162.686058 228.727842
L 161.796645 229.671623
L 160.897759 230.622205
L 159.989336 231.579045
L 159.071316 232.541551
L 158.143644 233.509081
L 157.206276 234.480939
L 156.25917 235.456375
L 155.302295 236.43458
L 154.335628 237.414688
L 153.359154 238.395769
L 152.372869 239.37683
L 151.376778 240.356813
L 150.370896 241.33459
L 149.355253 242.308966
L 148.329889 243.278674
L 147.294856 244.242373
L 146.250222 245.198652
L 145.196069 246.146023
L 144.132493 247.082924
L 143.059607 248.007718
L 141.977541 248.918693
L 140.886442 249.814061
L 139.786474 250.691963
L 138.677823 251.550468
L 137.560692 252.387573
L 136.435306 253.20121
L 135.30191 253.989247
L 134.16077 254.74949
L 133.012176 255.479692
L 131.85644 256.177554
L 130.693897 256.840733
L 129.524905 257.46685
L 128.349848 258.053494
L 127.169131 258.598233
L 125.983187 259.098623
L 124.792471 259.552216
L 123.597463 259.956571
L 122.398668 260.309269
L 121.196614 260.607918
L 119.991854 260.85017
L 118.784963 261.033735
L 117.576539 261.156391
L 116.367201 261.216
L 115.157592 261.210521
L 113.948371 261.138027
L 112.740217 260.996713
L 111.533827 260.78492
L 110.329915 260.501138
L 109.129205 260.144029
L 107.932439 259.712434
L 106.740364 259.205387
L 105.553741 258.622126
L 104.373334 257.962107
L 103.199912 257.225007
L 102.034247 256.410738
L 100.877111 255.519447
L 99.72927 254.551527
L 98.59149 253.507619
L 97.464524 252.388609
L 96.34912 251.195633
L 95.24601 249.930073
L 94.155911 248.593553
L 93.079525 247.187931
L 92.017533 245.715295
L 90.970591 244.177952
L 89.939337 242.578415
L 88.924378 240.919395
L 87.926294 239.203779
L 86.945637 237.434625
L 85.982926 235.615135
L 85.038647 233.748643
L 84.113254 231.838599
L 83.207165 229.888542
L 82.320761 227.902088
L 81.454388 225.882908
L 80.608356 223.834708
L 79.782935 221.76121
L 78.97836 219.666134
L 78.194828 217.553177
L 77.4325 215.425999
L 76.691499 213.288205
L 75.971915 211.143329
L 75.273801 208.994817
L 74.597176 206.846019
L 73.942027 204.700172
L 73.308309 202.560391
L 72.695945 200.429662
L 72.104832 198.310828
L 71.534836 196.206588
L 70.985799 194.119488
L 70.457538 192.05192
L 69.949845 190.006114
L 69.462492 187.984142
L 68.995232 185.987915
L 68.547798 184.019183
L 68.119908 182.079537
L 67.711262 180.170411
L 67.32155 178.293085
L 66.950447 176.448692
L 66.597619 174.638216
L 66.262723 172.862505
L 65.945407 171.122268
L 65.645314 169.41809
L 65.36208 167.750429
L 65.095338 166.119628
L 64.84472 164.525923
L 64.609852 162.969443
L 64.390363 161.450222
L 64.18588 159.968204
L 63.996032 158.52325
L 63.820448 157.115144
L 63.658763 155.743599
L 63.510612 154.408264
L 63.375635 153.108727
L 63.253476 151.844528
L 63.143784 150.615155
L 63.046215 149.420057
L 62.960427 148.258643
L 62.886088 147.130293
L 62.822869 146.034355
L 62.770451 144.970157
L 62.728519 143.937005
L 62.696766 142.934188
L 62.674893 141.960985
L 62.662606 141.016662
z
" clip-path="url(#pe5c06ff7d8)" style="fill: #ff8080; stroke: #ff8080; stroke-linejoin: miter"/>
   </g>
   <g id="patch_4">
    <path d="M 209.350506 140.257812
L 210.484114 136.664678
L 211.531026 132.910731
L 212.474228 128.983629
L 213.291595 124.873303
L 213.954982 120.573497
L 214.429345 116.083851
L 214.672053 111.412616
L 214.632664 106.579967
L 214.253561 101.621764
L 213.471953 96.593288
L 212.223771 91.57213
L 210.449814 86.659014
L 208.104005 81.975096
L 205.162784 77.654585
L 201.633692 73.832519
L 197.560537 70.629224
L 193.022876 68.134757
L 188.128961 66.397405
L 183.003511 65.419408
L 177.773404 65.160754
L 172.554798 65.549219
L 167.44422 66.493323
L 162.514459 67.894855
L 157.814607 69.658755
L 153.372891 71.699522
L 149.200807 73.944429
L 145.297477 76.334325
L 141.653555 78.822898
L 138.254392 81.375146
L 135.082432 83.965565
L 132.118906 86.576371
L 129.344983 89.195906
L 126.742497 91.817303
L 124.294375 94.437402
L 121.984867 97.055902
L 119.799635 99.674715
L 117.725767 102.297479
L 115.751743 104.929201
L 113.867379 107.576009
L 112.063767 110.244976
L 110.333226 112.944009
L 108.669265 115.681785
L 107.066575 118.467713
L 105.52105 121.311927
L 104.029845 124.225284
L 102.591478 127.219361
L 101.205991 130.306443
L 99.875169 133.499477
L 98.602842 136.811972
L 97.395277 140.257812
L 96.261669 143.850945
L 95.214757 147.604892
L 94.271554 151.531995
L 93.454187 155.64232
L 92.790801 159.942126
L 92.316438 164.431772
L 92.07373 169.103007
L 92.113119 173.935656
L 92.492222 178.893859
L 93.27383 183.922336
L 94.522012 188.943493
L 96.295969 193.856609
L 98.641778 198.540528
L 101.582998 202.861038
L 105.112091 206.683104
L 109.185246 209.886399
L 113.722907 212.380866
L 118.616822 214.118218
L 123.742271 215.096215
L 128.972378 215.354869
L 134.190985 214.966404
L 139.301563 214.0223
L 144.231324 212.620768
L 148.931175 210.856868
L 153.372891 208.816101
L 157.544976 206.571194
L 161.448306 204.181298
L 165.092228 201.692725
L 168.49139 199.140477
L 171.663351 196.550058
L 174.626877 193.939252
L 177.4008 191.319717
L 180.003286 188.69832
L 182.451408 186.078221
L 184.760916 183.459721
L 186.946148 180.840908
L 189.020016 178.218144
L 190.99404 175.586422
L 192.878404 172.939614
L 194.682016 170.270647
L 196.412557 167.571614
L 198.076518 164.833838
L 199.679208 162.04791
L 201.224732 159.203696
L 202.715938 156.290339
L 204.154304 153.296262
L 205.539792 150.20918
L 206.870614 147.016146
L 208.14294 143.703651
L 209.350506 140.257812
z
" clip-path="url(#pe5c06ff7d8)" style="fill: #80ff80; stroke: #80ff80; stroke-linejoin: miter"/>
   </g>
   <g id="patch_5">
    <path d="M 201.127476 140.257812
L 201.822596 137.209614
L 202.398915 134.064384
L 202.841264 130.821215
L 203.131704 127.48192
L 203.249484 124.051924
L 203.171173 120.541277
L 202.871046 116.965748
L 202.321832 113.347904
L 201.495907 109.718017
L 200.366997 106.114595
L 198.912385 102.584266
L 197.115504 99.180764
L 194.968657 95.96282
L 192.475451 92.990936
L 189.65247 90.323256
L 186.529705 88.011033
L 183.149476 86.094404
L 179.563844 84.599205
L 175.830886 83.535391
L 172.010453 82.897293
L 168.160077 82.665527
L 164.331638 82.81005
L 160.569125 83.293753
L 156.907552 84.075983
L 153.372891 85.115567
L 149.982755 86.37313
L 146.747527 87.812655
L 143.671695 89.402359
L 140.755173 91.115043
L 137.994523 92.92806
L 135.383991 94.823037
L 132.916357 96.785463
L 130.583594 98.804233
L 128.377376 100.871181
L 126.289445 102.980646
L 124.311885 105.12909
L 122.437305 107.314758
L 120.658977 109.537401
L 118.970929 111.798033
L 117.368021 114.098742
L 115.846001 116.442523
L 114.401565 118.833144
L 113.032421 121.275027
L 111.737355 123.773137
L 110.51633 126.332871
L 109.370587 128.95994
L 108.302784 131.660229
L 107.317151 134.439618
L 106.419674 137.303765
L 105.618306 140.257812
L 104.923187 143.306009
L 104.346867 146.451239
L 103.904519 149.694408
L 103.614079 153.033703
L 103.496298 156.463699
L 103.57461 159.974346
L 103.874737 163.549875
L 104.423951 167.167719
L 105.249876 170.797606
L 106.378786 174.401028
L 107.833398 177.931357
L 109.630278 181.334859
L 111.777126 184.552803
L 114.270332 187.524687
L 117.093313 190.192367
L 120.216077 192.50459
L 123.596306 194.421219
L 127.181939 195.916418
L 130.914896 196.980232
L 134.735329 197.61833
L 138.585706 197.850096
L 142.414145 197.705573
L 146.176657 197.22187
L 149.83823 196.43964
L 153.372891 195.400056
L 156.763028 194.142493
L 159.998255 192.702968
L 163.074088 191.113264
L 165.99061 189.40058
L 168.75126 187.587563
L 171.361791 185.692586
L 173.829426 183.73016
L 176.162189 181.71139
L 178.368407 179.644442
L 180.456337 177.534977
L 182.433897 175.386533
L 184.308477 173.200865
L 186.086806 170.978222
L 187.774854 168.71759
L 189.377762 166.416881
L 190.899782 164.0731
L 192.344217 161.682479
L 193.713362 159.240596
L 195.008427 156.742486
L 196.229453 154.182752
L 197.375196 151.555683
L 198.442999 148.855394
L 199.428632 146.076005
L 200.326109 143.211858
L 201.127476 140.257812
z
" clip-path="url(#pe5c06ff7d8)" style="fill: #ffff80; stroke: #ffff80; stroke-linejoin: miter"/>
   </g>
   <g id="matplotlib.axis_1">
    <g id="xtick_1">
     <g id="line2d_1">
      <defs>
       <path id="m26f5a1888e" d="M 0 0
L 0 3.5
" style="stroke: #000000; stroke-width: 0.8"/>
      </defs>
      <g>
       <use xlink:href="#m26f5a1888e" x="63.048776" y="273.312" style="stroke: #000000; stroke-width: 0.8"/>
      </g>
     </g>
     <g id="text_1">
      <!-- $\mathdefault{−2}$ -->
      <g transform="translate(54.210414 289.997876)scale(0.14 -0.14)">
       <defs>
        <path id="CMSY10-0" d="M 4218 1472
C 4326 1472 4442 1472 4442 1600
C 4442 1728 4326 1728 4218 1728
L 755 1728
C 646 1728 531 1728 531 1600
C 531 1472 646 1472 755 1472
L 4218 1472
z
" transform="scale(0.015625)"/>
        <path id="CMR17-32" d="M 2669 990
L 2554 990
C 2490 537 2438 460 2413 422
C 2381 371 1920 371 1830 371
L 602 371
C 832 620 1280 1073 1824 1596
C 2214 1966 2669 2400 2669 3033
C 2669 3788 2067 4224 1395 4224
C 691 4224 262 3603 262 3027
C 262 2777 448 2745 525 2745
C 589 2745 781 2783 781 3007
C 781 3206 614 3264 525 3264
C 486 3264 448 3257 422 3244
C 544 3788 915 4057 1306 4057
C 1862 4057 2227 3616 2227 3033
C 2227 2477 1901 1998 1536 1583
L 262 147
L 262 0
L 2515 0
L 2669 990
z
" transform="scale(0.015625)"/>
       </defs>
       <use xlink:href="#CMSY10-0" transform="scale(0.996264)"/>
       <use xlink:href="#CMR17-32" transform="translate(77.487468 0)scale(0.996264)"/>
      </g>
     </g>
    </g>
    <g id="xtick_2">
     <g id="line2d_2">
      <g>
       <use xlink:href="#m26f5a1888e" x="153.372891" y="273.312" style="stroke: #000000; stroke-width: 0.8"/>
      </g>
     </g>
     <g id="text_2">
      <!-- $\mathdefault{0}$ -->
      <g transform="translate(149.958647 289.997876)scale(0.14 -0.14)">
       <defs>
        <path id="CMR17-30" d="M 2688 2038
C 2688 2430 2682 3099 2413 3613
C 2176 4063 1798 4224 1466 4224
C 1158 4224 768 4082 525 3620
C 269 3137 243 2539 243 2038
C 243 1671 250 1112 448 623
C 723 -39 1216 -128 1466 -128
C 1760 -128 2208 -7 2470 604
C 2662 1048 2688 1568 2688 2038
z
M 1466 -26
C 1056 -26 813 328 723 816
C 653 1196 653 1749 653 2109
C 653 2604 653 3015 736 3407
C 858 3954 1216 4121 1466 4121
C 1728 4121 2067 3947 2189 3420
C 2272 3054 2278 2623 2278 2109
C 2278 1691 2278 1176 2202 797
C 2067 96 1690 -26 1466 -26
z
" transform="scale(0.015625)"/>
       </defs>
       <use xlink:href="#CMR17-30" transform="scale(0.996264)"/>
      </g>
     </g>
    </g>
    <g id="xtick_3">
     <g id="line2d_3">
      <g>
       <use xlink:href="#m26f5a1888e" x="243.697007" y="273.312" style="stroke: #000000; stroke-width: 0.8"/>
      </g>
     </g>
     <g id="text_3">
      <!-- $\mathdefault{2}$ -->
      <g transform="translate(240.282763 289.997876)scale(0.14 -0.14)">
       <use xlink:href="#CMR17-32" transform="scale(0.996264)"/>
      </g>
     </g>
    </g>
    <g id="text_4">
     <!-- $x_1$ -->
     <g transform="translate(144.415562 310.546902)scale(0.2 -0.2)">
      <defs>
       <path id="CMMI12-78" d="M 3034 2624
C 2829 2585 2752 2431 2752 2310
C 2752 2156 2874 2105 2963 2105
C 3155 2105 3290 2271 3290 2444
C 3290 2694 2982 2816 2714 2816
C 2323 2816 2106 2451 2048 2329
C 1901 2790 1504 2816 1389 2816
C 736 2816 390 1993 390 1849
C 390 1823 416 1790 461 1790
C 512 1790 525 1829 538 1855
C 755 2572 1184 2687 1370 2687
C 1658 2687 1715 2438 1715 2284
C 1715 2143 1677 1993 1600 1678
L 1382 778
C 1286 390 1101 64 762 64
C 730 64 570 64 435 126
C 666 166 717 358 717 435
C 717 563 621 640 499 640
C 346 640 179 505 179 300
C 179 57 480 -64 755 -64
C 1062 -64 1280 153 1414 415
C 1517 64 1837 -64 2074 -64
C 2726 -64 3072 751 3072 896
C 3072 929 3046 955 3008 955
C 2950 955 2944 922 2925 870
C 2752 300 2381 64 2093 64
C 1869 64 1747 204 1747 467
C 1747 607 1773 712 1875 1146
L 2099 2039
C 2195 2425 2413 2687 2707 2687
C 2720 2687 2899 2687 3034 2624
z
" transform="scale(0.015625)"/>
       <path id="CMR17-31" d="M 1702 4083
C 1702 4217 1696 4224 1606 4224
C 1357 3927 979 3833 621 3820
C 602 3820 570 3820 563 3808
C 557 3795 557 3782 557 3648
C 755 3648 1088 3686 1344 3839
L 1344 467
C 1344 243 1331 166 781 166
L 589 166
L 589 0
C 896 6 1216 12 1523 12
C 1830 12 2150 6 2458 0
L 2458 166
L 2266 166
C 1715 166 1702 236 1702 467
L 1702 4083
z
" transform="scale(0.015625)"/>
      </defs>
      <use xlink:href="#CMMI12-78" transform="scale(0.996264)"/>
      <use xlink:href="#CMR17-31" transform="translate(55.43406 -14.943915)scale(0.697382)"/>
     </g>
    </g>
   </g>
   <g id="matplotlib.axis_2">
    <g id="ytick_1">
     <g id="line2d_4">
      <defs>
       <path id="m857fae6743" d="M 0 0
L -3.5 0
" style="stroke: #000000; stroke-width: 0.8"/>
      </defs>
      <g>
       <use xlink:href="#m857fae6743" x="53.589354" y="230.581927" style="stroke: #000000; stroke-width: 0.8"/>
      </g>
     </g>
     <g id="text_5">
      <!-- $\mathdefault{−2}$ -->
      <g transform="translate(28.91263 235.424865)scale(0.14 -0.14)">
       <use xlink:href="#CMSY10-0" transform="scale(0.996264)"/>
       <use xlink:href="#CMR17-32" transform="translate(77.487468 0)scale(0.996264)"/>
      </g>
     </g>
    </g>
    <g id="ytick_2">
     <g id="line2d_5">
      <g>
       <use xlink:href="#m857fae6743" x="53.589354" y="185.419869" style="stroke: #000000; stroke-width: 0.8"/>
      </g>
     </g>
     <g id="text_6">
      <!-- $\mathdefault{−1}$ -->
      <g transform="translate(28.91263 190.262808)scale(0.14 -0.14)">
       <use xlink:href="#CMSY10-0" transform="scale(0.996264)"/>
       <use xlink:href="#CMR17-31" transform="translate(77.487468 0)scale(0.996264)"/>
      </g>
     </g>
    </g>
    <g id="ytick_3">
     <g id="line2d_6">
      <g>
       <use xlink:href="#m857fae6743" x="53.589354" y="140.257812" style="stroke: #000000; stroke-width: 0.8"/>
      </g>
     </g>
     <g id="text_7">
      <!-- $\mathdefault{0}$ -->
      <g transform="translate(39.760866 145.10075)scale(0.14 -0.14)">
       <use xlink:href="#CMR17-30" transform="scale(0.996264)"/>
      </g>
     </g>
    </g>
    <g id="ytick_4">
     <g id="line2d_7">
      <g>
       <use xlink:href="#m857fae6743" x="53.589354" y="95.095754" style="stroke: #000000; stroke-width: 0.8"/>
      </g>
     </g>
     <g id="text_8">
      <!-- $\mathdefault{1}$ -->
      <g transform="translate(39.760866 99.938692)scale(0.14 -0.14)">
       <use xlink:href="#CMR17-31" transform="scale(0.996264)"/>
      </g>
     </g>
    </g>
    <g id="ytick_5">
     <g id="line2d_8">
      <g>
       <use xlink:href="#m857fae6743" x="53.589354" y="49.933696" style="stroke: #000000; stroke-width: 0.8"/>
      </g>
     </g>
     <g id="text_9">
      <!-- $\mathdefault{2}$ -->
      <g transform="translate(39.760866 54.776634)scale(0.14 -0.14)">
       <use xlink:href="#CMR17-32" transform="scale(0.996264)"/>
      </g>
     </g>
    </g>
    <g id="text_10">
     <!-- $x_2$ -->
     <g transform="translate(21.036997 149.213635)rotate(-90)scale(0.2 -0.2)">
      <use xlink:href="#CMMI12-78" transform="scale(0.996264)"/>
      <use xlink:href="#CMR17-32" transform="translate(55.43406 -14.943915)scale(0.697382)"/>
     </g>
    </g>
   </g>
   <g id="patch_6">
    <path d="M 53.589354 273.312
L 53.589354 7.2
" style="fill: none; stroke: #000000; stroke-width: 0.8; stroke-linejoin: miter; stroke-linecap: square"/>
   </g>
   <g id="patch_7">
    <path d="M 253.157039 273.312
L 253.157039 7.2
" style="fill: none; stroke: #000000; stroke-width: 0.8; stroke-linejoin: miter; stroke-linecap: square"/>
   </g>
   <g id="patch_8">
    <path d="M 53.589354 273.312
L 253.157039 273.312
" style="fill: none; stroke: #000000; stroke-width: 0.8; stroke-linejoin: miter; stroke-linecap: square"/>
   </g>
   <g id="patch_9">
    <path d="M 53.589354 7.2
L 253.157039 7.2
" style="fill: none; stroke: #000000; stroke-width: 0.8; stroke-linejoin: miter; stroke-linecap: square"/>
   </g>
  </g>
 </g>
 <defs>
  <clipPath id="pe5c06ff7d8">
   <rect x="53.589354" y="7.2" width="199.567685" height="266.112"/>
  </clipPath>
 </defs>
</svg>
